<?xml version="1.0" encoding="UTF-8" standalone="no"?><!DOCTYPE svg PUBLIC "-//W3C//DTD SVG 1.1//EN" "http://www.w3.org/Graphics/SVG/1.1/DTD/svg11.dtd"><svg width="100%" height="100%" viewBox="0 0 512 512" version="1.1" xmlns="http://www.w3.org/2000/svg" xmlns:xlink="http://www.w3.org/1999/xlink" xml:space="preserve" xmlns:serif="http://www.serif.com/" style="fill-rule:evenodd;clip-rule:evenodd;stroke-linejoin:round;stroke-miterlimit:2;"><path d="M453.961,58.039c12.774,12.774 12.774,33.515 0,46.289l-349.632,349.632c-12.774,12.774 -33.515,12.774 -46.289,-0c-12.774,-12.774 -12.774,-33.515 -0,-46.289l349.632,-349.632c12.774,-12.774 33.515,-12.774 46.289,0Z" style="fill:#f5f5f5;"/><path d="M453.961,453.961c-12.774,12.774 -33.515,12.774 -46.289,0l-349.632,-349.632c-12.774,-12.774 -12.774,-33.515 0,-46.289c12.774,-12.774 33.515,-12.774 46.289,-0l349.632,349.632c12.774,12.774 12.774,33.515 -0,46.289Z" style="fill:#f5f5f5;"/></svg>