<?xml version="1.0" encoding="UTF-8" standalone="no"?><!DOCTYPE svg PUBLIC "-//W3C//DTD SVG 1.1//EN" "http://www.w3.org/Graphics/SVG/1.1/DTD/svg11.dtd"><svg width="100%" height="100%" viewBox="0 0 471 416" version="1.1" xmlns="http://www.w3.org/2000/svg" xmlns:xlink="http://www.w3.org/1999/xlink" xml:space="preserve" xmlns:serif="http://www.serif.com/" style="fill-rule:evenodd;clip-rule:evenodd;stroke-linejoin:round;stroke-miterlimit:2;"><path d="M438.016,0c18.065,-0 32.732,14.667 32.732,32.732l-0,350.178c0,18.065 -14.667,32.732 -32.732,32.732c-18.065,0 -32.732,-14.667 -32.732,-32.732l0,-350.178c0,-18.065 14.667,-32.732 32.732,-32.732Z" style="fill:#f5f5f5;"/><path d="M32.732,0c18.065,-0 32.732,14.667 32.732,32.732l-0,350.178c0,18.065 -14.667,32.732 -32.732,32.732c-18.065,0 -32.732,-14.667 -32.732,-32.732l0,-350.178c0,-18.065 14.667,-32.732 32.732,-32.732Z" style="fill:#f5f5f5;"/><path d="M470.748,382.909c0,18.065 -14.667,32.732 -32.732,32.732l-405.285,0c-18.065,0 -32.732,-14.667 -32.732,-32.732c-0,-18.065 14.667,-32.732 32.732,-32.732l405.285,0c18.065,0 32.732,14.667 32.732,32.732Z" style="fill:#f5f5f5;"/><path d="M470.748,32.732c0,18.065 -14.666,32.732 -32.732,32.732l-403.876,0c-18.065,0 -32.732,-14.667 -32.732,-32.732c-0,-18.065 14.666,-32.732 32.732,-32.732l403.876,0c18.065,0 32.732,14.667 32.732,32.732Z" style="fill:#f5f5f5;"/></svg>